<?xml version="1.0" encoding="UTF-8" standalone="no"?>
<!-- Uploaded to: SVG Repo, www.svgrepo.com, Generator: SVG Repo Mixer Tools -->

<svg
   width="860"
   height="320"
   viewBox="0 -168 550.4 204.8"
   version="1.1"
   preserveAspectRatio="xMidYMid"
   id="svg123"
   sodipodi:docname="certbot-logo.svg"
   inkscape:version="1.2.2 (b0a8486541, 2022-12-01)"
   xmlns:inkscape="http://www.inkscape.org/namespaces/inkscape"
   xmlns:sodipodi="http://sodipodi.sourceforge.net/DTD/sodipodi-0.dtd"
   xmlns="http://www.w3.org/2000/svg"
   xmlns:svg="http://www.w3.org/2000/svg">
  <defs
     id="defs127" />
  <sodipodi:namedview
     id="namedview125"
     pagecolor="#ffffff"
     bordercolor="#000000"
     borderopacity="0.25"
     inkscape:showpageshadow="2"
     inkscape:pageopacity="0.0"
     inkscape:pagecheckerboard="0"
     inkscape:deskcolor="#d1d1d1"
     showgrid="false"
     inkscape:zoom="0.97375"
     inkscape:cx="399.48652"
     inkscape:cy="137.09884"
     inkscape:window-width="1920"
     inkscape:window-height="1003"
     inkscape:window-x="0"
     inkscape:window-y="0"
     inkscape:window-maximized="1"
     inkscape:current-layer="svg123" />
  <rect
     style="fill:#ffffff;stroke-width:1.39508"
     id="rect431"
     width="551.11395"
     height="204.8"
     x="0"
     y="-168" />
  <g
     id="g121"
     transform="matrix(0.92258088,0,0,0.92258088,35.2,-146.97339)">
    <path
       d="m 126.9166,175.2504 c -0.99974,-6.55644 -6.66771,-11.66891 -13.5588,-11.66891 -6.89024,0 -12.55822,5.0012 -13.558793,11.66891 h 1.556083 z"
       fill="#000000"
       id="path91" />
    <path
       d="m 96.353882,175.2504 c -0.999738,-6.55644 -6.667712,-11.66891 -13.558797,-11.66891 -6.891085,0 -12.558222,5.0012 -13.558797,11.66891 h 25.560679 z"
       fill="#000000"
       id="path93" />
    <path
       d="m 78.572758,152.00895 v 19.24083 H 93.35383 V 122.79467 H 78.572758 v 19.90927 c -0.909924,1.33426 -1.44481,2.93838 -1.44481,4.6525 0,1.71413 0.534886,3.31825 1.44481,4.65251 z m 6.890249,-9.76581 c -2.778353,0 -5.111635,2.22285 -5.111635,5.11247 0,2.88962 2.22285,5.11163 5.111635,5.11163 2.88962,0 5.11247,-2.22201 5.11247,-5.11163 0,-2.88962 -2.334117,-5.11247 -5.11247,-5.11247 z"
       fill="#ed1c24"
       id="path95" />
    <path
       d="m 117.24716,142.54474 v -19.75007 h -14.78107 v 48.45511 h 14.78107 v -19.0813 c 0.97747,-1.36505 1.55608,-3.02903 1.55608,-4.81204 0,-1.78286 -0.57865,-3.44672 -1.55608,-4.8117 z m -6.77898,-0.3016 c -2.77835,0 -5.11247,2.22285 -5.11247,5.11247 0,2.88962 2.22285,5.11163 5.11247,5.11163 2.88962,0 5.11164,-2.22201 5.11164,-5.11163 0,-2.88962 -2.33328,-5.11247 -5.11164,-5.11247 z"
       fill="#ed1c24"
       id="path97" />
    <path
       d="m 142.88478,75.111055 2.70225,-41.780022 h 4.33443 l 2.08527,41.91168 c 1.58009,1.323362 2.58213,3.312308 2.58213,5.542856 0,3.887268 -3.04255,7.040754 -6.88583,7.216343 -5.05789,5.866536 -13.9174,13.998348 -27.12117,18.900678 v -20.449048 0 c 0,0 12.22278,1.658798 19.56729,-5.315234 -0.006,-0.116858 -0.008,-0.234459 -0.008,-0.352739 0,-2.305805 1.07079,-4.353429 2.74402,-5.674514 z m 4.48003,1.896422 c -2.11158,0 -3.88936,1.777778 -3.88936,3.88936 0,2.111581 1.77778,3.889359 3.88936,3.889359 2.11158,0 3.88936,-1.777778 3.88936,-3.889359 0,-2.111582 -1.66651,-3.88936 -3.88936,-3.88936 z"
       fill="#ed1c24"
       id="path99" />
    <path
       d="M 52.935138,75.111055 50.232889,33.331033 h -4.334432 l -1.976668,41.82251 c -1.642639,1.322274 -2.69073,3.350797 -2.69073,5.632026 0,3.887538 3.043762,7.041192 6.886703,7.21638 5.057896,5.866533 13.917394,13.998321 27.12114,18.900641 V 86.453542 c 0,0 -12.223672,1.658918 -19.568092,-5.315994 0.0055,-0.116608 0.0084,-0.233955 0.0084,-0.351979 0,-2.305805 -1.070795,-4.353429 -2.744025,-5.674514 z m -4.480027,1.896422 c -2.111582,0 -3.889359,1.777778 -3.889359,3.88936 0,2.111581 1.777777,3.889359 3.889359,3.889359 2.111582,0 3.88936,-1.777778 3.88936,-3.889359 0,-2.111582 -1.777778,-3.88936 -3.88936,-3.88936 z"
       fill="#ed1c24"
       id="path101" />
    <path
       d="M 53.455477,18.328261 V 30.553516 H 43.342641 V 18.328261 c -3.112157,1.777778 -5.223739,5.112471 -5.223739,8.890562 0,5.667974 4.556967,10.224105 10.224941,10.224105 5.667974,0 10.224105,-4.556131 10.224105,-10.224105 0.111268,-3.778091 -2.000314,-7.112784 -5.112471,-8.890562 z"
       fill="#000000"
       id="path103" />
    <path
       d="m 143.03122,18.328261 v 12.225255 h 10.11283 V 18.328261 c 3.11216,1.777778 5.22374,5.112471 5.22374,8.890562 0,5.667974 -4.55613,10.224105 -10.2241,10.224105 -5.66798,0 -10.22495,-4.556131 -10.22495,-10.224105 -0.11126,-3.778091 2.00032,-7.112784 5.11248,-8.890562 z"
       fill="#000000"
       id="path105" />
    <path
       d="m 76.242341,83.284205 0.218835,-23.169382 c 0.111268,-5.890509 2.44455,-11.335947 6.667713,-15.447843 4.223163,-4.111895 9.779869,-6.334745 15.669542,-6.223477 5.890509,0.111268 11.335949,2.444549 15.447839,6.667713 4.1119,4.223163 6.33475,9.779869 6.22348,15.670379 l -0.28407,22.186016 c 4.66803,5.195684 7.50812,12.066864 7.50812,19.601379 0,16.20382 -13.13579,29.33961 -29.339604,29.33961 -16.203818,0 -29.339608,-13.13579 -29.339608,-29.33961 0,-7.382464 2.72662,-14.128096 7.227753,-19.284785 z M 112.704,76.97207 112.91273,60.670327 c 0,-3.88936 -1.44481,-7.55702 -4.11189,-10.335373 -2.66709,-2.778353 -6.33475,-4.334431 -10.224945,-4.334431 -3.890196,0 -7.557019,1.44481 -10.335372,4.111895 -2.778353,2.667085 -4.334431,6.334745 -4.334431,10.224105 l -0.238407,16.827652 c 4.319239,-2.502344 9.335592,-3.934789 14.686511,-3.934789 5.212454,0 10.107434,1.35927 14.349814,3.742687 z M 90.908444,69.005386 c 1.779787,0 3.222589,-1.442802 3.222589,-3.222589 0,-1.779786 -1.442802,-3.222588 -3.222589,-3.222588 -1.779786,0 -3.222588,1.442802 -3.222588,3.222588 0,1.779787 1.442802,3.222589 3.222588,3.222589 z m 15.114036,0 c 1.77979,0 3.22259,-1.442802 3.22259,-3.222589 0,-1.779786 -1.4428,-3.222588 -3.22259,-3.222588 -1.77978,0 -3.22258,1.442802 -3.22258,3.222588 0,1.779787 1.4428,3.222589 3.22258,3.222589 z"
       fill="#000000"
       id="path107" />
    <path
       d="m 95.687111,97.790327 -1.111843,21.003713 h 8.224632 l -1.66735,-21.114981 c 2.00031,-1.000575 3.33385,-3.000889 3.33385,-5.446275 0,-3.333856 -2.77835,-6.112209 -6.112204,-6.112209 -3.333856,0 -6.112209,2.778353 -6.112209,6.112209 0.111268,2.556654 1.44481,4.556131 3.445124,5.557543 z"
       fill="#ed1c24"
       id="path109" />
    <path
       d="M 27.783529,11.548444 C 24.78264,7.1035817 20.559477,4.5469281 16.114614,4.5469281 c -4.556967,0 -8.6688624,2.444549 -11.7810192,6.8902489 C 1.5560784,15.549909 0,20.995346 0,26.66332 c 0,5.667138 1.5560784,11.113412 4.3344314,15.225307 3.0008889,4.444863 7.2240526,6.890249 11.6689146,6.890249 4.4457,0 8.668863,-2.444549 11.78102,-6.890249 2.000314,-2.889621 3.333856,-6.334745 3.889359,-10.113673 0.111268,-0.666771 0.77804,-1.222274 1.444811,-1.222274 l 176.148914,0.111268 c 0.77804,0 1.44481,-0.666772 1.55608,-1.444811 v -4.668235 c 0,-0.778039 -0.66677,-1.44481 -1.44481,-1.555242 h -5.33417 c -0.77804,0 -1.44481,-0.666771 -1.44481,-1.556078 V 1.6573072 c 0,-0.77803923 -0.66677,-1.44481047 -1.44481,-1.55607844 H 178.9281 c -0.77804,0 -1.44481,0.66677124 -1.55607,1.44481044 V 21.328314 c 0,0.778039 -0.66678,1.44481 -1.55608,1.44481 h -1.33355 c -0.77803,0 -1.44481,-0.666771 -1.44481,-1.555242 V 6.1038431 c 0,-0.7780392 -0.66677,-1.4448104 -1.44481,-1.5560784 h -3.44512 c -0.77804,0 -1.44481,0.6667712 -1.55608,1.4448105 V 21.106614 c 0,0.77804 -0.66677,1.444811 -1.55524,1.444811 H 33.229804 c -0.778039,0 -1.333543,-0.555503 -1.444811,-1.222275 -0.778875,-3.445961 -2.000313,-7.002353 -4.001464,-9.780706 z M 16.003346,42.555399 c -5.334169,0 -9.8911369,-7.335321 -9.8911369,-15.892079 0,-8.557595 4.5569679,-15.892915 10.0024049,-15.892915 5.445438,0 9.891138,7.33532 9.891138,15.892915 0,8.557595 -4.668236,15.892079 -10.002406,15.892079 z"
       fill="#ed1c24"
       id="path111" />
    <path
       d="M 55.790431,33.331033 C 55.012392,32.219189 54.234353,31.663686 53.456314,30.55268 v 0 H 43.342641 V 18.327425 c -3.112157,1.777778 -5.223739,5.11247 -5.223739,8.890562 0,5.667974 4.556967,10.224104 10.224941,10.224104 3.11132,0 5.89051,-1.44481 7.779556,-3.556392 0,-0.220862 -0.222536,-0.33213 -0.332968,-0.554666 z"
       fill="#000000"
       id="path113" />
    <path
       d="m 140.80837,33.331033 c 0.77804,-1.111844 0.99973,-1.667347 1.77777,-2.778353 h 0.55551 10.11283 V 18.327425 c 3.11216,1.777778 5.22374,5.11247 5.22374,8.890562 0,5.667974 -4.55613,10.224104 -10.2241,10.224104 -3.11216,0 -5.89051,-1.44481 -7.77956,-3.556392 8.4e-4,-0.220862 0.11127,-0.33213 0.33381,-0.554666 z"
       fill="#000000"
       id="path115" />
    <path
       d="m 166.14735,163.24852 c 2.88962,0 5.22373,-0.88847 6.89024,-2.55665 1.77778,-1.66651 2.55582,-3.88936 2.55582,-6.66771 h 14.55854 l 0.11127,0.33296 c 0.11126,6.00094 -2.11159,11.11342 -6.77982,15.22531 -4.6674,4.1119 -10.55791,6.11221 -17.44816,6.11221 -8.89056,0 -15.78081,-2.77752 -20.67074,-8.44633 -4.77867,-5.66713 -7.22406,-12.89119 -7.22406,-21.78259 v -1.6665 c 0,-8.78014 2.44539,-16.00335 7.44576,-21.78259 5.0012,-5.66714 12.00271,-8.5576 21.22708,-8.5576 4.77867,0 9.1131,0.66677 13.00246,2.11075 3.77893,1.44564 7.00151,3.44512 9.55733,6.11304 l 0.22254,16.00335 h -13.11373 l -2.66708,-9.3348 c -0.77804,-0.66677 -1.77778,-1.33438 -3.00006,-1.77861 -1.22227,-0.44424 -2.55665,-0.66677 -4.00062,-0.66677 -4.55697,0 -7.77956,1.66734 -9.6686,5.0012 -1.88989,3.33386 -2.77836,7.55702 -2.77836,12.78076 v 1.66651 c 0,5.335 0.88847,9.66943 2.55582,12.89202 1.88905,3.33553 4.88993,5.00204 9.22437,5.00204 z m 59.01302,12.33569 c -8.66887,0 -15.55912,-2.77752 -20.67075,-8.33506 -5.11247,-5.55671 -7.77956,-12.55822 -7.77956,-21.11582 v -2.22201 c 0,-8.8914 2.44539,-16.22588 7.33533,-22.00512 4.88993,-5.77841 11.44721,-8.5576 19.671,-8.5576 8.11252,0 14.336,2.44455 18.7817,7.33532 4.44486,4.88994 6.66771,11.44722 6.66771,19.78228 v 8.77929 h -35.67435 l -0.11127,0.33297 c 0.33381,4.00062 1.66735,7.22405 4.00147,9.77987 2.33411,2.55665 5.5567,3.77892 9.55733,3.77892 3.55556,0 6.55644,-0.33296 8.89056,-1.111 2.33412,-0.66677 4.88994,-1.88988 7.77956,-3.44513 l 4.33443,10.00157 c -2.44539,2.00115 -5.66797,3.55639 -9.55733,4.89077 -4.00231,1.44398 -8.33674,2.11075 -13.22583,2.11075 z m -1.44481,-49.56612 c -3.00089,0 -5.33417,1.11101 -7.11279,3.44513 -1.77861,2.33411 -2.77835,5.33417 -3.22342,9.00183 l 0.11126,0.22337 h 19.89355 v -1.44565 c 0,-3.44512 -0.77804,-6.11221 -2.44455,-8.22379 -1.55608,-2.00115 -3.8902,-3.00089 -7.22405,-3.00089 z m 34.89631,38.78567 7.77956,-1.66651 v -37.11916 l -8.5576,-1.66651 v -9.77987 h 23.5612 l 0.66677,8.7793 c 1.44481,-3.11132 3.22343,-5.55671 5.44544,-7.22322 2.22285,-1.77861 4.7795,-2.55665 7.66829,-2.55665 0.88931,0 1.77861,0.11127 2.66708,0.22253 0.88847,0.11127 1.66735,0.33297 2.33412,0.44424 v 12.22442 l -4.7795,0.11126 c -4.22317,0 -8.00126,1.55608 -9.3348,2.44539 -1.44481,0.99974 -2.77835,3.33386 -3.66766,5.0012 v 29.11707 l 7.77956,1.66651 v 9.66944 h -31.67289 v -9.66944 z m 74.01579,-64.79142 v 14.22557 h 10.55791 v 12.22442 h -10.55791 v 30.00638 c 0,2.33411 0.44423,4.00062 1.44565,5.00203 0.99974,0.99974 2.22201,1.44482 3.88936,1.44482 1.111,0 2.11074,0 2.88878,-0.11127 0.77888,-0.11127 1.77861,-0.22254 2.77835,-0.44424 l 1.33438,11.66892 c -1.77861,0.5555 -3.55639,0.99974 -5.335,1.22227 -1.77778,0.22254 -3.66766,0.44424 -5.77841,0.44424 -5.55754,0 -9.89114,-1.55525 -12.89202,-4.55613 -3.00089,-3.11216 -4.55614,-7.89083 -4.55614,-14.55854 v -30.00638 h -8.77929 v -12.22442 h 8.77929 v -14.33683 h 16.22505 z"
       fill="#000000"
       id="path117" />
    <path
       d="m 407.64403,146.24544 c 0,8.89056 -2.00032,16.00334 -6.00095,21.44878 -4.00062,5.33501 -9.77986,8.00126 -17.22645,8.00126 -3.5564,0 -6.55728,-0.77804 -9.1131,-2.22202 -2.55665,-1.44564 -4.7795,-3.55639 -6.55728,-6.33474 l -1.11101,7.33532 H 353.74348 V 99.568941 l -8.5576,-1.66651 v -9.779869 h 24.67137 v 32.784728 c 1.77862,-2.44538 3.77893,-4.22316 6.22348,-5.55754 2.44539,-1.33354 5.2229,-1.88904 8.33506,-1.88904 7.55702,0 13.33626,2.88962 17.33773,8.55759 4.00062,5.77924 6.00094,13.33626 6.00094,22.89359 v 1.33438 h -0.11043 z m -16.11462,-1.22311 c 0,-5.77841 -0.88847,-10.44664 -2.55665,-13.89093 -1.66651,-3.44513 -4.6674,-5.11247 -8.7793,-5.11247 -2.55665,0 -4.66739,0.5555 -6.33474,1.55608 -1.77778,0.99973 -3.11216,2.55581 -4.1119,4.55613 v 25.22687 c 0.99974,1.88988 2.33412,3.22343 4.1119,4.224 1.77861,0.99974 3.88936,1.44481 6.44601,1.44481 4.1119,0 7.11279,-1.44481 8.7793,-4.44486 1.66734,-2.88962 2.44538,-7.11278 2.44538,-12.44695 z m 22.8936,-1.00058 c 0,-8.89056 2.44538,-16.22588 7.44575,-21.89386 5.0012,-5.66713 11.89145,-8.55759 20.67158,-8.55759 8.89056,0 15.78081,2.88962 20.78201,8.55759 5.00121,5.66798 7.44575,13.0033 7.44575,22.00513 v 1.11101 c 0,9.00266 -2.44538,16.33715 -7.44575,22.00512 -5.0012,5.66797 -11.89145,8.44633 -20.67074,8.44633 -8.8914,0 -15.78165,-2.77752 -20.78285,-8.44633 -5.0012,-5.66714 -7.44575,-13.00246 -7.44575,-22.00512 z m 16.11461,1.11101 c 0,5.44627 1.00058,9.77987 2.88962,13.11456 1.88988,3.33386 5.0012,5.0012 9.33564,5.0012 4.11189,0 7.22405,-1.66651 9.11309,-5.0012 1.88989,-3.33386 2.88963,-7.66829 2.88963,-13.11456 v -1.11101 c 0,-5.33417 -0.99974,-9.66944 -2.88963,-13.00329 -2.00031,-3.33302 -5.0012,-5.0012 -9.22353,-5.0012 -4.224,0 -7.22405,1.66734 -9.22436,5.0012 -1.88905,3.33385 -2.88962,7.66912 -2.88962,13.00329 v 1.11101 z m 69.12669,-45.12042 v 14.6698 h 10.55791 v 11.33595 h -10.55791 v 30.45062 c 0,2.33411 0.44424,4.00062 1.44481,5.00203 0.99974,0.99974 2.22285,1.44482 3.88936,1.44482 1.11101,0 2.11159,0 2.88962,-0.11127 0.77804,-0.11127 1.77778,-0.22254 2.77836,-0.44424 L 512,174.02897 c -1.77778,0.5555 -3.55639,0.99974 -5.33417,1.22227 -1.77861,0.22254 -3.66766,0.44424 -5.77924,0.44424 -5.55671,0 -9.89114,-1.55525 -12.89119,-4.55613 -3.00089,-3.11216 -4.55697,-7.89083 -4.55697,-14.55854 v -30.56188 h -8.77929 v -11.33595 h 8.77929 v -14.6698 h 16.22588 z"
       fill="#ed1c24"
       id="path119" />
  </g>
</svg>
