			<svg
				width="48px"
				height="48px"
				xmlns="http://www.w3.org/2000/svg"
				xmlns:svg="http://www.w3.org/2000/svg">
				<g fill="#ffffff" fill-rule="nonzero" stroke="none" stroke-width="1" stroke-linecap="butt" stroke-linejoin="miter" stroke-miterlimit="10" stroke-dasharray="" stroke-dashoffset="0" font-family="none" font-weight="none" font-size="none" text-anchor="none" style="mix-blend-mode: normal">
				<path
					d="M 5.6308595,4 C 4.7342186,3.9999326 3.999913,4.8102244 4.0000001,5.8009031 V 34.19694 C 3.9996516,35.187821 4.7330861,36.000086 5.6308595,36 H 42.369141 C 43.267001,36.000086 44.000435,35.187916 44,34.19694 V 5.8009031 C 44,4.8102437 43.265781,3.9999326 42.369141,4 Z M 9.9804688,8.3135404 H 38.009766 L 23.996094,21.834333 Z M 40.736327,10.465996 V 30.439845 L 30.488281,20.352633 Z M 7.263672,10.478938 17.552734,20.40655 7.263672,30.539057 Z m 20.75,12.261239 9.748047,9.599782 H 10.337891 l 9.693359,-9.541548 2.888672,2.786545 c 0.612657,0.590624 1.53374,0.590585 2.146484,0 z"
					/>
				</g>
			</svg>

