<?xml version="1.0" encoding="UTF-8" standalone="no"?>
<!-- Uploaded to: SVG Repo, www.svgrepo.com, Generator: SVG Repo Mixer Tools -->

<svg
   height="3.7675951"
   width="4.8000002"
   version="1.1"
   id="_x32_"
   viewBox="0 0 25.600205 20.094"
   xml:space="preserve"
   sodipodi:docname="email2.svg"
   inkscape:version="1.2.2 (b0a8486541, 2022-12-01)"
   xmlns:inkscape="http://www.inkscape.org/namespaces/inkscape"
   xmlns:sodipodi="http://sodipodi.sourceforge.net/DTD/sodipodi-0.dtd"
   xmlns="http://www.w3.org/2000/svg"
   xmlns:svg="http://www.w3.org/2000/svg"><defs
   id="defs3353">
	
</defs><sodipodi:namedview
   id="namedview3351"
   pagecolor="#ffffff"
   bordercolor="#000000"
   borderopacity="0.25"
   inkscape:showpageshadow="2"
   inkscape:pageopacity="0.0"
   inkscape:pagecheckerboard="0"
   inkscape:deskcolor="#d1d1d1"
   showgrid="false"
   inkscape:zoom="5.423509"
   inkscape:cx="-74.490519"
   inkscape:cy="33.834184"
   inkscape:window-width="1920"
   inkscape:window-height="1003"
   inkscape:window-x="0"
   inkscape:window-y="0"
   inkscape:window-maximized="1"
   inkscape:current-layer="_x32_" />
<style
   type="text/css"
   id="style3344">
	.st0{fill:#000000;}
</style>
<path
   id="path3346"
   style="stroke-width:0.0500001;fill:#ffffff"
   class="st0"
   d="M 3.5521116 0 C 2.5742606 0 1.6824256 0.40077431 1.041675 1.041675 C 0.95592485 1.1274251 0.87818979 1.2167603 0.80208972 1.3125104 C 0.44193936 1.7519109 0.18511735 2.2833056 0.072917247 2.8646061 C 0.026817203 3.0889564 -6.1679486e-18 3.3177113 0 3.5521116 L 0 16.541798 C 0 17.040199 0.1031688 17.515409 0.29166899 17.94806 C 0.46651916 18.36106 0.72802462 18.738884 1.041675 19.052235 C 1.1211749 19.131535 1.1951101 19.208903 1.2812602 19.281403 C 1.8955608 19.790154 2.6934108 20.09391 3.5521116 20.09391 L 22.052259 20.09391 C 22.91126 20.09391 23.701942 19.782937 24.312693 19.270987 C 24.398593 19.201687 24.483396 19.131535 24.562695 19.052235 C 24.876196 18.738884 25.134251 18.36106 25.312701 17.94806 C 25.501151 17.515409 25.60437 17.040149 25.60437 16.541798 L 25.60437 3.5521116 C 25.60442 3.3177113 25.574703 3.0889564 25.531453 2.8646061 C 25.416053 2.2833056 25.16223 1.7519609 24.802281 1.3125104 C 24.72638 1.2167603 24.648645 1.1274251 24.562695 1.041675 C 23.924945 0.40077431 23.03011 -9.8687178e-17 22.052259 0 L 3.5521116 0 z M 3.5521116 1.8125144 L 22.052259 1.8125144 C 22.534559 1.8125144 22.957518 2.0060348 23.271019 2.3229352 C 23.327118 2.3793851 23.38062 2.4479366 23.42727 2.5104366 L 13.739693 10.958421 C 13.472293 11.19277 13.139285 11.302173 12.802185 11.302173 C 12.468485 11.302173 12.135627 11.19277 11.864678 10.958421 L 2.1771007 2.5000199 C 2.2200006 2.43752 2.2668348 2.3793852 2.3229352 2.3229352 C 2.6401854 2.0060348 3.0698111 1.8125144 3.5521116 1.8125144 z M 1.8125144 4.3854516 L 8.8334036 10.500084 L 1.8229312 16.614716 C 1.8193812 16.591516 1.8125144 16.568248 1.8125144 16.541798 L 1.8125144 4.3854516 z M 23.781439 4.3854516 L 23.781439 16.541798 C 23.781439 16.568248 23.784839 16.591516 23.781439 16.614716 L 16.770967 10.5105 L 23.781439 4.3854516 z M 10.09383 11.604259 L 10.781336 12.198014 C 11.359386 12.700314 12.085584 12.958436 12.802185 12.958436 C 13.522485 12.958436 14.245033 12.700314 14.823035 12.198014 L 15.51054 11.604259 L 22.906432 18.052227 C 22.655282 18.197277 22.36631 18.281395 22.052259 18.281395 L 3.5521116 18.281395 C 3.2380613 18.281395 2.9383216 18.197278 2.6875214 18.052227 L 10.09383 11.604259 z " />
</svg>
